# xmcd
#
# Track frame offsets:
#	150
#	18013
#	33553
#	51177
#	64967
#	83385
#	101758
#	116154
#	129239
#	143654
#	160516
#	177302
#	192426
#	207670
#
# Disc length: 3000 seconds
#
# Revision: 0
# Processed by: cddbd v1.5.1PL0 Copyright (c) Steve Scherf et al.
# Submitted via: audiograbber 1.83.01
#
DISCID=bc0bb60e
DTITLE=Collin Ray - The Best Of
DYEAR=1900
DGENRE=Country
TTITLE0=Little Rock
TTITLE1=I Think About You
TTITLE2=Not That Different
TTITLE3=That's My Story
TTITLE4=If I Were You
TTITLE5=On Boy, One Girl
TTITLE6=In This Life
TTITLE7=My Kind Of Girl
TTITLE8=That Was A River
TTITLE9=What The Heart Wants
TTITLE10=The Gift
TTITLE11=Open Arms
TTITLE12=Little Red Rodeo
TTITLE13=Love, Me
EXTD=
EXTT0=
EXTT1=
EXTT2=
EXTT3=
EXTT4=
EXTT5=
EXTT6=
EXTT7=
EXTT8=
EXTT9=
EXTT10=
EXTT11=
EXTT12=
EXTT13=
PLAYORDER=
